<mxfile host="Electron" modified="2023-11-30T11:18:36.869Z" agent="Mozilla/5.0 (X11; Linux x86_64) AppleWebKit/537.36 (KHTML, like Gecko) draw.io/22.1.2 Chrome/114.0.5735.289 Electron/25.9.4 Safari/537.36" etag="fCWoEPeDOKwpAQqyWhZJ" version="22.1.2" type="device" pages="4">
  <diagram name="PÃ¡gina-1" id="zwIt4ZT9LlGdYYxH_q5l">
    <mxGraphModel dx="1434" dy="839" grid="1" gridSize="10" guides="1" tooltips="1" connect="1" arrows="1" fold="1" page="1" pageScale="1" pageWidth="1169" pageHeight="827" math="0" shadow="0">
      <root>
        <mxCell id="0" />
        <mxCell id="1" parent="0" />
        <mxCell id="vZ2Ym8V51Z4fnAsbYTrX-24" value="" style="group" parent="1" vertex="1" connectable="0">
          <mxGeometry x="200" y="80" width="160" height="80" as="geometry" />
        </mxCell>
        <mxCell id="vZ2Ym8V51Z4fnAsbYTrX-25" value="" style="rounded=1;whiteSpace=wrap;html=1;fillColor=#BFBFBF;fontColor=#333333;strokeColor=#666666;container=0;" parent="vZ2Ym8V51Z4fnAsbYTrX-24" vertex="1">
          <mxGeometry width="160" height="80" as="geometry" />
        </mxCell>
        <mxCell id="vZ2Ym8V51Z4fnAsbYTrX-26" value="" style="endArrow=none;html=1;rounded=0;entryX=0.5;entryY=0;entryDx=0;entryDy=0;exitX=0.5;exitY=1;exitDx=0;exitDy=0;fillColor=#f5f5f5;strokeColor=#666666;" parent="vZ2Ym8V51Z4fnAsbYTrX-24" source="vZ2Ym8V51Z4fnAsbYTrX-25" target="vZ2Ym8V51Z4fnAsbYTrX-25" edge="1">
          <mxGeometry width="50" height="50" relative="1" as="geometry">
            <mxPoint x="10" y="440" as="sourcePoint" />
            <mxPoint x="60" y="390" as="targetPoint" />
          </mxGeometry>
        </mxCell>
        <mxCell id="vZ2Ym8V51Z4fnAsbYTrX-39" style="edgeStyle=orthogonalEdgeStyle;rounded=0;orthogonalLoop=1;jettySize=auto;html=1;" parent="vZ2Ym8V51Z4fnAsbYTrX-24" source="vZ2Ym8V51Z4fnAsbYTrX-27" edge="1">
          <mxGeometry relative="1" as="geometry">
            <mxPoint x="41" y="160" as="targetPoint" />
          </mxGeometry>
        </mxCell>
        <mxCell id="vZ2Ym8V51Z4fnAsbYTrX-27" value="" style="ellipse;whiteSpace=wrap;html=1;aspect=fixed;fillColor=#000000;container=0;" parent="vZ2Ym8V51Z4fnAsbYTrX-24" vertex="1">
          <mxGeometry x="36" y="35" width="10" height="10" as="geometry" />
        </mxCell>
        <mxCell id="vZ2Ym8V51Z4fnAsbYTrX-28" value="" style="ellipse;whiteSpace=wrap;html=1;aspect=fixed;fillColor=#000000;" parent="vZ2Ym8V51Z4fnAsbYTrX-24" vertex="1">
          <mxGeometry x="116" y="35" width="10" height="10" as="geometry" />
        </mxCell>
        <mxCell id="vZ2Ym8V51Z4fnAsbYTrX-38" value="" style="group" parent="1" vertex="1" connectable="0">
          <mxGeometry x="200" y="240" width="80" height="80" as="geometry" />
        </mxCell>
        <mxCell id="vZ2Ym8V51Z4fnAsbYTrX-36" value="" style="rounded=1;whiteSpace=wrap;html=1;" parent="vZ2Ym8V51Z4fnAsbYTrX-38" vertex="1">
          <mxGeometry width="80" height="80" as="geometry" />
        </mxCell>
        <mxCell id="vZ2Ym8V51Z4fnAsbYTrX-37" value="&lt;font style=&quot;font-size: 24px;&quot;&gt;a&lt;/font&gt;" style="text;html=1;strokeColor=none;fillColor=none;align=center;verticalAlign=middle;whiteSpace=wrap;rounded=0;" parent="vZ2Ym8V51Z4fnAsbYTrX-38" vertex="1">
          <mxGeometry x="10" y="25" width="60" height="30" as="geometry" />
        </mxCell>
        <mxCell id="hYa9ANRJxd4RdiM6IrgB-18" style="edgeStyle=orthogonalEdgeStyle;rounded=0;orthogonalLoop=1;jettySize=auto;html=1;entryX=0;entryY=0.5;entryDx=0;entryDy=0;" parent="1" source="hYa9ANRJxd4RdiM6IrgB-1" target="vZ2Ym8V51Z4fnAsbYTrX-25" edge="1">
          <mxGeometry relative="1" as="geometry" />
        </mxCell>
        <mxCell id="hYa9ANRJxd4RdiM6IrgB-1" value="x" style="text;html=1;strokeColor=none;fillColor=none;align=center;verticalAlign=middle;whiteSpace=wrap;rounded=0;fontSize=24;" parent="1" vertex="1">
          <mxGeometry x="60" y="105" width="60" height="30" as="geometry" />
        </mxCell>
        <mxCell id="hYa9ANRJxd4RdiM6IrgB-14" style="edgeStyle=orthogonalEdgeStyle;rounded=0;orthogonalLoop=1;jettySize=auto;html=1;exitX=0.5;exitY=0;exitDx=0;exitDy=0;entryX=0;entryY=0.5;entryDx=0;entryDy=0;" parent="1" source="vZ2Ym8V51Z4fnAsbYTrX-28" edge="1">
          <mxGeometry relative="1" as="geometry">
            <Array as="points">
              <mxPoint x="321" y="120" />
            </Array>
            <mxPoint x="440" y="120" as="targetPoint" />
          </mxGeometry>
        </mxCell>
        <mxCell id="hYa9ANRJxd4RdiM6IrgB-15" value="" style="group" parent="1" vertex="1" connectable="0">
          <mxGeometry x="680" y="240" width="80" height="80" as="geometry" />
        </mxCell>
        <mxCell id="hYa9ANRJxd4RdiM6IrgB-16" value="" style="rounded=1;whiteSpace=wrap;html=1;" parent="hYa9ANRJxd4RdiM6IrgB-15" vertex="1">
          <mxGeometry width="80" height="80" as="geometry" />
        </mxCell>
        <mxCell id="hYa9ANRJxd4RdiM6IrgB-17" value="&lt;font style=&quot;font-size: 24px;&quot;&gt;c&lt;/font&gt;" style="text;html=1;strokeColor=none;fillColor=none;align=center;verticalAlign=middle;whiteSpace=wrap;rounded=0;" parent="hYa9ANRJxd4RdiM6IrgB-15" vertex="1">
          <mxGeometry x="10" y="25" width="60" height="30" as="geometry" />
        </mxCell>
        <mxCell id="hYa9ANRJxd4RdiM6IrgB-45" value="" style="group" parent="1" vertex="1" connectable="0">
          <mxGeometry x="680" y="80" width="160" height="80" as="geometry" />
        </mxCell>
        <mxCell id="hYa9ANRJxd4RdiM6IrgB-46" value="" style="rounded=1;whiteSpace=wrap;html=1;fillColor=#BFBFBF;fontColor=#333333;strokeColor=#666666;container=0;" parent="hYa9ANRJxd4RdiM6IrgB-45" vertex="1">
          <mxGeometry width="160" height="80" as="geometry" />
        </mxCell>
        <mxCell id="hYa9ANRJxd4RdiM6IrgB-47" value="" style="endArrow=none;html=1;rounded=0;entryX=0.5;entryY=0;entryDx=0;entryDy=0;exitX=0.5;exitY=1;exitDx=0;exitDy=0;fillColor=#f5f5f5;strokeColor=#666666;" parent="hYa9ANRJxd4RdiM6IrgB-45" source="hYa9ANRJxd4RdiM6IrgB-46" target="hYa9ANRJxd4RdiM6IrgB-46" edge="1">
          <mxGeometry width="50" height="50" relative="1" as="geometry">
            <mxPoint x="10" y="440" as="sourcePoint" />
            <mxPoint x="60" y="390" as="targetPoint" />
          </mxGeometry>
        </mxCell>
        <mxCell id="hYa9ANRJxd4RdiM6IrgB-48" value="" style="ellipse;whiteSpace=wrap;html=1;aspect=fixed;fillColor=#000000;container=0;" parent="hYa9ANRJxd4RdiM6IrgB-45" vertex="1">
          <mxGeometry x="35" y="35" width="10" height="10" as="geometry" />
        </mxCell>
        <mxCell id="hYa9ANRJxd4RdiM6IrgB-49" value="" style="endArrow=none;html=1;rounded=0;exitX=0.5;exitY=1;exitDx=0;exitDy=0;entryX=0.972;entryY=0.063;entryDx=0;entryDy=0;entryPerimeter=0;strokeWidth=1;strokeColor=#7D7D7D;" parent="hYa9ANRJxd4RdiM6IrgB-45" source="hYa9ANRJxd4RdiM6IrgB-46" target="hYa9ANRJxd4RdiM6IrgB-46" edge="1">
          <mxGeometry width="50" height="50" relative="1" as="geometry">
            <mxPoint x="240" y="90" as="sourcePoint" />
            <mxPoint x="290" y="40" as="targetPoint" />
          </mxGeometry>
        </mxCell>
        <mxCell id="hYa9ANRJxd4RdiM6IrgB-53" style="rounded=0;orthogonalLoop=1;jettySize=auto;html=1;entryX=0.5;entryY=0;entryDx=0;entryDy=0;" parent="1" source="hYa9ANRJxd4RdiM6IrgB-48" target="hYa9ANRJxd4RdiM6IrgB-16" edge="1">
          <mxGeometry relative="1" as="geometry">
            <mxPoint x="1200" y="240" as="targetPoint" />
          </mxGeometry>
        </mxCell>
        <mxCell id="lTBojO5Arluz9Pw7ZTl4-1" value="" style="group" parent="1" vertex="1" connectable="0">
          <mxGeometry x="440" y="80" width="160" height="80" as="geometry" />
        </mxCell>
        <mxCell id="lTBojO5Arluz9Pw7ZTl4-2" value="" style="rounded=1;whiteSpace=wrap;html=1;fillColor=#BFBFBF;fontColor=#333333;strokeColor=#666666;container=0;" parent="lTBojO5Arluz9Pw7ZTl4-1" vertex="1">
          <mxGeometry width="160" height="80" as="geometry" />
        </mxCell>
        <mxCell id="lTBojO5Arluz9Pw7ZTl4-3" value="" style="endArrow=none;html=1;rounded=0;entryX=0.5;entryY=0;entryDx=0;entryDy=0;exitX=0.5;exitY=1;exitDx=0;exitDy=0;fillColor=#f5f5f5;strokeColor=#666666;" parent="lTBojO5Arluz9Pw7ZTl4-1" source="lTBojO5Arluz9Pw7ZTl4-2" target="lTBojO5Arluz9Pw7ZTl4-2" edge="1">
          <mxGeometry width="50" height="50" relative="1" as="geometry">
            <mxPoint x="10" y="440" as="sourcePoint" />
            <mxPoint x="60" y="390" as="targetPoint" />
          </mxGeometry>
        </mxCell>
        <mxCell id="Dd2Qs8Yl-6Usn3ERB-Nq-5" style="edgeStyle=orthogonalEdgeStyle;rounded=0;orthogonalLoop=1;jettySize=auto;html=1;" edge="1" parent="lTBojO5Arluz9Pw7ZTl4-1" source="lTBojO5Arluz9Pw7ZTl4-5">
          <mxGeometry relative="1" as="geometry">
            <mxPoint x="40" y="160" as="targetPoint" />
          </mxGeometry>
        </mxCell>
        <mxCell id="lTBojO5Arluz9Pw7ZTl4-5" value="" style="ellipse;whiteSpace=wrap;html=1;aspect=fixed;fillColor=#000000;container=0;" parent="lTBojO5Arluz9Pw7ZTl4-1" vertex="1">
          <mxGeometry x="35" y="35" width="10" height="10" as="geometry" />
        </mxCell>
        <mxCell id="lTBojO5Arluz9Pw7ZTl4-6" value="" style="ellipse;whiteSpace=wrap;html=1;aspect=fixed;fillColor=#000000;" parent="lTBojO5Arluz9Pw7ZTl4-1" vertex="1">
          <mxGeometry x="115" y="35" width="10" height="10" as="geometry" />
        </mxCell>
        <mxCell id="Dd2Qs8Yl-6Usn3ERB-Nq-1" style="edgeStyle=orthogonalEdgeStyle;rounded=0;orthogonalLoop=1;jettySize=auto;html=1;" edge="1" parent="1" source="lTBojO5Arluz9Pw7ZTl4-6" target="hYa9ANRJxd4RdiM6IrgB-46">
          <mxGeometry relative="1" as="geometry" />
        </mxCell>
        <mxCell id="Dd2Qs8Yl-6Usn3ERB-Nq-2" value="" style="group" vertex="1" connectable="0" parent="1">
          <mxGeometry x="440" y="240" width="80" height="80" as="geometry" />
        </mxCell>
        <mxCell id="Dd2Qs8Yl-6Usn3ERB-Nq-3" value="" style="rounded=1;whiteSpace=wrap;html=1;" vertex="1" parent="Dd2Qs8Yl-6Usn3ERB-Nq-2">
          <mxGeometry width="80" height="80" as="geometry" />
        </mxCell>
        <mxCell id="Dd2Qs8Yl-6Usn3ERB-Nq-4" value="&lt;font style=&quot;font-size: 24px;&quot;&gt;b&lt;/font&gt;" style="text;html=1;strokeColor=none;fillColor=none;align=center;verticalAlign=middle;whiteSpace=wrap;rounded=0;" vertex="1" parent="Dd2Qs8Yl-6Usn3ERB-Nq-2">
          <mxGeometry x="10" y="25" width="60" height="30" as="geometry" />
        </mxCell>
      </root>
    </mxGraphModel>
  </diagram>
  <diagram id="juuSa_BItZ-fs_brEXgG" name="PÃ¡gina-2">
    <mxGraphModel dx="1434" dy="839" grid="1" gridSize="10" guides="1" tooltips="1" connect="1" arrows="1" fold="1" page="1" pageScale="1" pageWidth="1169" pageHeight="827" math="0" shadow="0">
      <root>
        <mxCell id="0" />
        <mxCell id="1" parent="0" />
        <mxCell id="ugmJWqpHuise6BiDGYMr-1" value="" style="group" vertex="1" connectable="0" parent="1">
          <mxGeometry x="200" y="240" width="160" height="80" as="geometry" />
        </mxCell>
        <mxCell id="ugmJWqpHuise6BiDGYMr-2" value="" style="rounded=1;whiteSpace=wrap;html=1;fillColor=#BFBFBF;fontColor=#333333;strokeColor=#666666;container=0;" vertex="1" parent="ugmJWqpHuise6BiDGYMr-1">
          <mxGeometry width="160" height="80" as="geometry" />
        </mxCell>
        <mxCell id="ugmJWqpHuise6BiDGYMr-3" value="" style="endArrow=none;html=1;rounded=0;entryX=0.5;entryY=0;entryDx=0;entryDy=0;exitX=0.5;exitY=1;exitDx=0;exitDy=0;fillColor=#f5f5f5;strokeColor=#666666;" edge="1" parent="ugmJWqpHuise6BiDGYMr-1" source="ugmJWqpHuise6BiDGYMr-2" target="ugmJWqpHuise6BiDGYMr-2">
          <mxGeometry width="50" height="50" relative="1" as="geometry">
            <mxPoint x="10" y="440" as="sourcePoint" />
            <mxPoint x="60" y="390" as="targetPoint" />
          </mxGeometry>
        </mxCell>
        <mxCell id="ugmJWqpHuise6BiDGYMr-4" style="edgeStyle=orthogonalEdgeStyle;rounded=0;orthogonalLoop=1;jettySize=auto;html=1;" edge="1" parent="ugmJWqpHuise6BiDGYMr-1" source="ugmJWqpHuise6BiDGYMr-5">
          <mxGeometry relative="1" as="geometry">
            <mxPoint x="41" y="160" as="targetPoint" />
          </mxGeometry>
        </mxCell>
        <mxCell id="ugmJWqpHuise6BiDGYMr-5" value="" style="ellipse;whiteSpace=wrap;html=1;aspect=fixed;fillColor=#000000;container=0;" vertex="1" parent="ugmJWqpHuise6BiDGYMr-1">
          <mxGeometry x="36" y="35" width="10" height="10" as="geometry" />
        </mxCell>
        <mxCell id="ugmJWqpHuise6BiDGYMr-6" value="" style="ellipse;whiteSpace=wrap;html=1;aspect=fixed;fillColor=#000000;" vertex="1" parent="ugmJWqpHuise6BiDGYMr-1">
          <mxGeometry x="115" y="35" width="10" height="10" as="geometry" />
        </mxCell>
        <mxCell id="gP5gN5uZ2hNaXmb1VDn8-7" style="edgeStyle=orthogonalEdgeStyle;rounded=0;orthogonalLoop=1;jettySize=auto;html=1;entryX=0;entryY=0.5;entryDx=0;entryDy=0;" edge="1" parent="1" source="ugmJWqpHuise6BiDGYMr-11" target="gP5gN5uZ2hNaXmb1VDn8-2">
          <mxGeometry relative="1" as="geometry" />
        </mxCell>
        <mxCell id="ugmJWqpHuise6BiDGYMr-11" value="x" style="text;html=1;strokeColor=none;fillColor=none;align=center;verticalAlign=middle;whiteSpace=wrap;rounded=0;fontSize=24;" vertex="1" parent="1">
          <mxGeometry x="60" y="105" width="60" height="30" as="geometry" />
        </mxCell>
        <mxCell id="ugmJWqpHuise6BiDGYMr-16" value="" style="group" vertex="1" connectable="0" parent="1">
          <mxGeometry x="200" y="400" width="160" height="80" as="geometry" />
        </mxCell>
        <mxCell id="ugmJWqpHuise6BiDGYMr-17" value="" style="rounded=1;whiteSpace=wrap;html=1;fillColor=#BFBFBF;fontColor=#333333;strokeColor=#666666;container=0;" vertex="1" parent="ugmJWqpHuise6BiDGYMr-16">
          <mxGeometry width="160" height="80" as="geometry" />
        </mxCell>
        <mxCell id="ugmJWqpHuise6BiDGYMr-18" value="" style="endArrow=none;html=1;rounded=0;entryX=0.5;entryY=0;entryDx=0;entryDy=0;exitX=0.5;exitY=1;exitDx=0;exitDy=0;fillColor=#f5f5f5;strokeColor=#666666;" edge="1" parent="ugmJWqpHuise6BiDGYMr-16" source="ugmJWqpHuise6BiDGYMr-17" target="ugmJWqpHuise6BiDGYMr-17">
          <mxGeometry width="50" height="50" relative="1" as="geometry">
            <mxPoint x="10" y="440" as="sourcePoint" />
            <mxPoint x="60" y="390" as="targetPoint" />
          </mxGeometry>
        </mxCell>
        <mxCell id="ugmJWqpHuise6BiDGYMr-19" value="" style="ellipse;whiteSpace=wrap;html=1;aspect=fixed;fillColor=#000000;container=0;" vertex="1" parent="ugmJWqpHuise6BiDGYMr-16">
          <mxGeometry x="35" y="35" width="10" height="10" as="geometry" />
        </mxCell>
        <mxCell id="ugmJWqpHuise6BiDGYMr-20" value="" style="endArrow=none;html=1;rounded=0;exitX=0.5;exitY=1;exitDx=0;exitDy=0;entryX=0.972;entryY=0.063;entryDx=0;entryDy=0;entryPerimeter=0;strokeWidth=1;strokeColor=#7D7D7D;" edge="1" parent="ugmJWqpHuise6BiDGYMr-16" source="ugmJWqpHuise6BiDGYMr-17" target="ugmJWqpHuise6BiDGYMr-17">
          <mxGeometry width="50" height="50" relative="1" as="geometry">
            <mxPoint x="240" y="90" as="sourcePoint" />
            <mxPoint x="290" y="40" as="targetPoint" />
          </mxGeometry>
        </mxCell>
        <mxCell id="ugmJWqpHuise6BiDGYMr-21" style="rounded=0;orthogonalLoop=1;jettySize=auto;html=1;entryX=0.5;entryY=0;entryDx=0;entryDy=0;" edge="1" parent="1" source="ugmJWqpHuise6BiDGYMr-19">
          <mxGeometry relative="1" as="geometry">
            <mxPoint x="240" y="560" as="targetPoint" />
          </mxGeometry>
        </mxCell>
        <mxCell id="ugmJWqpHuise6BiDGYMr-32" style="edgeStyle=orthogonalEdgeStyle;rounded=0;orthogonalLoop=1;jettySize=auto;html=1;entryX=0.75;entryY=0;entryDx=0;entryDy=0;" edge="1" parent="1" source="ugmJWqpHuise6BiDGYMr-6">
          <mxGeometry relative="1" as="geometry">
            <mxPoint x="320" y="400" as="targetPoint" />
          </mxGeometry>
        </mxCell>
        <mxCell id="wbqhcG1n7CAVZiyRJ3wh-4" value="" style="group" vertex="1" connectable="0" parent="1">
          <mxGeometry x="200" y="560" width="80" height="80" as="geometry" />
        </mxCell>
        <mxCell id="wbqhcG1n7CAVZiyRJ3wh-5" value="" style="rounded=1;whiteSpace=wrap;html=1;" vertex="1" parent="wbqhcG1n7CAVZiyRJ3wh-4">
          <mxGeometry width="80" height="80" as="geometry" />
        </mxCell>
        <mxCell id="wbqhcG1n7CAVZiyRJ3wh-6" value="&lt;font style=&quot;font-size: 24px;&quot;&gt;a&lt;/font&gt;" style="text;html=1;strokeColor=none;fillColor=none;align=center;verticalAlign=middle;whiteSpace=wrap;rounded=0;" vertex="1" parent="wbqhcG1n7CAVZiyRJ3wh-4">
          <mxGeometry x="10" y="25" width="60" height="30" as="geometry" />
        </mxCell>
        <mxCell id="gP5gN5uZ2hNaXmb1VDn8-1" value="" style="group" vertex="1" connectable="0" parent="1">
          <mxGeometry x="200" y="80" width="160" height="80" as="geometry" />
        </mxCell>
        <mxCell id="gP5gN5uZ2hNaXmb1VDn8-2" value="" style="rounded=1;whiteSpace=wrap;html=1;fillColor=#BFBFBF;fontColor=#333333;strokeColor=#666666;container=0;" vertex="1" parent="gP5gN5uZ2hNaXmb1VDn8-1">
          <mxGeometry width="160" height="80" as="geometry" />
        </mxCell>
        <mxCell id="gP5gN5uZ2hNaXmb1VDn8-3" value="" style="endArrow=none;html=1;rounded=0;entryX=0.5;entryY=0;entryDx=0;entryDy=0;exitX=0.5;exitY=1;exitDx=0;exitDy=0;fillColor=#f5f5f5;strokeColor=#666666;" edge="1" parent="gP5gN5uZ2hNaXmb1VDn8-1" source="gP5gN5uZ2hNaXmb1VDn8-2" target="gP5gN5uZ2hNaXmb1VDn8-2">
          <mxGeometry width="50" height="50" relative="1" as="geometry">
            <mxPoint x="10" y="440" as="sourcePoint" />
            <mxPoint x="60" y="390" as="targetPoint" />
          </mxGeometry>
        </mxCell>
        <mxCell id="gP5gN5uZ2hNaXmb1VDn8-4" value="" style="ellipse;whiteSpace=wrap;html=1;aspect=fixed;fillColor=#000000;container=0;" vertex="1" parent="gP5gN5uZ2hNaXmb1VDn8-1">
          <mxGeometry x="35" y="35" width="10" height="10" as="geometry" />
        </mxCell>
        <mxCell id="gP5gN5uZ2hNaXmb1VDn8-5" value="" style="endArrow=none;html=1;rounded=0;exitX=0.5;exitY=1;exitDx=0;exitDy=0;entryX=0.972;entryY=0.063;entryDx=0;entryDy=0;entryPerimeter=0;strokeWidth=1;strokeColor=#7D7D7D;" edge="1" parent="gP5gN5uZ2hNaXmb1VDn8-1" source="gP5gN5uZ2hNaXmb1VDn8-2" target="gP5gN5uZ2hNaXmb1VDn8-2">
          <mxGeometry width="50" height="50" relative="1" as="geometry">
            <mxPoint x="240" y="90" as="sourcePoint" />
            <mxPoint x="290" y="40" as="targetPoint" />
          </mxGeometry>
        </mxCell>
        <mxCell id="gP5gN5uZ2hNaXmb1VDn8-6" style="edgeStyle=orthogonalEdgeStyle;rounded=0;orthogonalLoop=1;jettySize=auto;html=1;entryX=0.25;entryY=0;entryDx=0;entryDy=0;" edge="1" parent="1" source="gP5gN5uZ2hNaXmb1VDn8-4" target="ugmJWqpHuise6BiDGYMr-2">
          <mxGeometry relative="1" as="geometry" />
        </mxCell>
      </root>
    </mxGraphModel>
  </diagram>
  <diagram id="O6qbBNTbkCvlWNbBYZyF" name="PÃ¡gina-3">
    <mxGraphModel dx="1434" dy="839" grid="1" gridSize="10" guides="1" tooltips="1" connect="1" arrows="1" fold="1" page="1" pageScale="1" pageWidth="1169" pageHeight="827" math="0" shadow="0">
      <root>
        <mxCell id="0" />
        <mxCell id="1" parent="0" />
        <mxCell id="UgR5U_nz13qpJDysP3n_-1" value="" style="group" vertex="1" connectable="0" parent="1">
          <mxGeometry x="200" y="80" width="160" height="80" as="geometry" />
        </mxCell>
        <mxCell id="UgR5U_nz13qpJDysP3n_-2" value="" style="rounded=1;whiteSpace=wrap;html=1;fillColor=#BFBFBF;fontColor=#333333;strokeColor=#666666;container=0;" vertex="1" parent="UgR5U_nz13qpJDysP3n_-1">
          <mxGeometry width="160" height="80" as="geometry" />
        </mxCell>
        <mxCell id="UgR5U_nz13qpJDysP3n_-3" value="" style="endArrow=none;html=1;rounded=0;entryX=0.5;entryY=0;entryDx=0;entryDy=0;exitX=0.5;exitY=1;exitDx=0;exitDy=0;fillColor=#f5f5f5;strokeColor=#666666;" edge="1" parent="UgR5U_nz13qpJDysP3n_-1" source="UgR5U_nz13qpJDysP3n_-2" target="UgR5U_nz13qpJDysP3n_-2">
          <mxGeometry width="50" height="50" relative="1" as="geometry">
            <mxPoint x="10" y="440" as="sourcePoint" />
            <mxPoint x="60" y="390" as="targetPoint" />
          </mxGeometry>
        </mxCell>
        <mxCell id="UgR5U_nz13qpJDysP3n_-4" style="edgeStyle=orthogonalEdgeStyle;rounded=0;orthogonalLoop=1;jettySize=auto;html=1;" edge="1" parent="UgR5U_nz13qpJDysP3n_-1" source="UgR5U_nz13qpJDysP3n_-5">
          <mxGeometry relative="1" as="geometry">
            <mxPoint x="41" y="160" as="targetPoint" />
          </mxGeometry>
        </mxCell>
        <mxCell id="UgR5U_nz13qpJDysP3n_-5" value="" style="ellipse;whiteSpace=wrap;html=1;aspect=fixed;fillColor=#000000;container=0;" vertex="1" parent="UgR5U_nz13qpJDysP3n_-1">
          <mxGeometry x="36" y="35" width="10" height="10" as="geometry" />
        </mxCell>
        <mxCell id="UgR5U_nz13qpJDysP3n_-6" value="" style="ellipse;whiteSpace=wrap;html=1;aspect=fixed;fillColor=#000000;" vertex="1" parent="UgR5U_nz13qpJDysP3n_-1">
          <mxGeometry x="115" y="35" width="10" height="10" as="geometry" />
        </mxCell>
        <mxCell id="UgR5U_nz13qpJDysP3n_-7" style="edgeStyle=orthogonalEdgeStyle;rounded=0;orthogonalLoop=1;jettySize=auto;html=1;entryX=0;entryY=0.5;entryDx=0;entryDy=0;" edge="1" parent="1" source="UgR5U_nz13qpJDysP3n_-8" target="UgR5U_nz13qpJDysP3n_-2">
          <mxGeometry relative="1" as="geometry" />
        </mxCell>
        <mxCell id="UgR5U_nz13qpJDysP3n_-8" value="x" style="text;html=1;strokeColor=none;fillColor=none;align=center;verticalAlign=middle;whiteSpace=wrap;rounded=0;fontSize=24;" vertex="1" parent="1">
          <mxGeometry x="60" y="105" width="60" height="30" as="geometry" />
        </mxCell>
        <mxCell id="UgR5U_nz13qpJDysP3n_-9" value="" style="group" vertex="1" connectable="0" parent="1">
          <mxGeometry x="200" y="400" width="160" height="80" as="geometry" />
        </mxCell>
        <mxCell id="UgR5U_nz13qpJDysP3n_-10" value="" style="rounded=1;whiteSpace=wrap;html=1;fillColor=#BFBFBF;fontColor=#333333;strokeColor=#666666;container=0;" vertex="1" parent="UgR5U_nz13qpJDysP3n_-9">
          <mxGeometry width="160" height="80" as="geometry" />
        </mxCell>
        <mxCell id="UgR5U_nz13qpJDysP3n_-11" value="" style="endArrow=none;html=1;rounded=0;entryX=0.5;entryY=0;entryDx=0;entryDy=0;exitX=0.5;exitY=1;exitDx=0;exitDy=0;fillColor=#f5f5f5;strokeColor=#666666;" edge="1" parent="UgR5U_nz13qpJDysP3n_-9" source="UgR5U_nz13qpJDysP3n_-10" target="UgR5U_nz13qpJDysP3n_-10">
          <mxGeometry width="50" height="50" relative="1" as="geometry">
            <mxPoint x="10" y="440" as="sourcePoint" />
            <mxPoint x="60" y="390" as="targetPoint" />
          </mxGeometry>
        </mxCell>
        <mxCell id="UgR5U_nz13qpJDysP3n_-12" value="" style="ellipse;whiteSpace=wrap;html=1;aspect=fixed;fillColor=#000000;container=0;" vertex="1" parent="UgR5U_nz13qpJDysP3n_-9">
          <mxGeometry x="35" y="35" width="10" height="10" as="geometry" />
        </mxCell>
        <mxCell id="UgR5U_nz13qpJDysP3n_-13" value="" style="endArrow=none;html=1;rounded=0;exitX=0.5;exitY=1;exitDx=0;exitDy=0;entryX=0.972;entryY=0.063;entryDx=0;entryDy=0;entryPerimeter=0;strokeWidth=1;strokeColor=#7D7D7D;" edge="1" parent="UgR5U_nz13qpJDysP3n_-9" source="UgR5U_nz13qpJDysP3n_-10" target="UgR5U_nz13qpJDysP3n_-10">
          <mxGeometry width="50" height="50" relative="1" as="geometry">
            <mxPoint x="240" y="90" as="sourcePoint" />
            <mxPoint x="290" y="40" as="targetPoint" />
          </mxGeometry>
        </mxCell>
        <mxCell id="UgR5U_nz13qpJDysP3n_-14" style="rounded=0;orthogonalLoop=1;jettySize=auto;html=1;entryX=0.5;entryY=0;entryDx=0;entryDy=0;" edge="1" parent="1" source="UgR5U_nz13qpJDysP3n_-12">
          <mxGeometry relative="1" as="geometry">
            <mxPoint x="240" y="560" as="targetPoint" />
          </mxGeometry>
        </mxCell>
        <mxCell id="UgR5U_nz13qpJDysP3n_-22" style="edgeStyle=orthogonalEdgeStyle;rounded=0;orthogonalLoop=1;jettySize=auto;html=1;entryX=0.75;entryY=0;entryDx=0;entryDy=0;" edge="1" parent="1" source="UgR5U_nz13qpJDysP3n_-6">
          <mxGeometry relative="1" as="geometry">
            <mxPoint x="320" y="240" as="targetPoint" />
          </mxGeometry>
        </mxCell>
        <mxCell id="UgR5U_nz13qpJDysP3n_-26" value="" style="group" vertex="1" connectable="0" parent="1">
          <mxGeometry x="200" y="560" width="80" height="80" as="geometry" />
        </mxCell>
        <mxCell id="UgR5U_nz13qpJDysP3n_-27" value="" style="rounded=1;whiteSpace=wrap;html=1;" vertex="1" parent="UgR5U_nz13qpJDysP3n_-26">
          <mxGeometry width="80" height="80" as="geometry" />
        </mxCell>
        <mxCell id="UgR5U_nz13qpJDysP3n_-28" value="&lt;font style=&quot;font-size: 24px;&quot;&gt;a&lt;/font&gt;" style="text;html=1;strokeColor=none;fillColor=none;align=center;verticalAlign=middle;whiteSpace=wrap;rounded=0;" vertex="1" parent="UgR5U_nz13qpJDysP3n_-26">
          <mxGeometry x="10" y="25" width="60" height="30" as="geometry" />
        </mxCell>
        <mxCell id="UgR5U_nz13qpJDysP3n_-36" value="" style="group" vertex="1" connectable="0" parent="1">
          <mxGeometry x="200" y="240" width="160" height="80" as="geometry" />
        </mxCell>
        <mxCell id="UgR5U_nz13qpJDysP3n_-37" value="" style="rounded=1;whiteSpace=wrap;html=1;fillColor=#BFBFBF;fontColor=#333333;strokeColor=#666666;container=0;" vertex="1" parent="UgR5U_nz13qpJDysP3n_-36">
          <mxGeometry width="160" height="80" as="geometry" />
        </mxCell>
        <mxCell id="UgR5U_nz13qpJDysP3n_-38" value="" style="endArrow=none;html=1;rounded=0;entryX=0.5;entryY=0;entryDx=0;entryDy=0;exitX=0.5;exitY=1;exitDx=0;exitDy=0;fillColor=#f5f5f5;strokeColor=#666666;" edge="1" parent="UgR5U_nz13qpJDysP3n_-36" source="UgR5U_nz13qpJDysP3n_-37" target="UgR5U_nz13qpJDysP3n_-37">
          <mxGeometry width="50" height="50" relative="1" as="geometry">
            <mxPoint x="10" y="440" as="sourcePoint" />
            <mxPoint x="60" y="390" as="targetPoint" />
          </mxGeometry>
        </mxCell>
        <mxCell id="UgR5U_nz13qpJDysP3n_-39" style="edgeStyle=orthogonalEdgeStyle;rounded=0;orthogonalLoop=1;jettySize=auto;html=1;" edge="1" parent="UgR5U_nz13qpJDysP3n_-36" source="UgR5U_nz13qpJDysP3n_-40">
          <mxGeometry relative="1" as="geometry">
            <mxPoint x="41" y="160" as="targetPoint" />
          </mxGeometry>
        </mxCell>
        <mxCell id="UgR5U_nz13qpJDysP3n_-40" value="" style="ellipse;whiteSpace=wrap;html=1;aspect=fixed;fillColor=#000000;container=0;" vertex="1" parent="UgR5U_nz13qpJDysP3n_-36">
          <mxGeometry x="36" y="35" width="10" height="10" as="geometry" />
        </mxCell>
        <mxCell id="UgR5U_nz13qpJDysP3n_-41" value="" style="ellipse;whiteSpace=wrap;html=1;aspect=fixed;fillColor=#000000;" vertex="1" parent="UgR5U_nz13qpJDysP3n_-36">
          <mxGeometry x="115" y="35" width="10" height="10" as="geometry" />
        </mxCell>
        <mxCell id="UgR5U_nz13qpJDysP3n_-42" style="edgeStyle=orthogonalEdgeStyle;rounded=0;orthogonalLoop=1;jettySize=auto;html=1;entryX=0.75;entryY=0;entryDx=0;entryDy=0;" edge="1" source="UgR5U_nz13qpJDysP3n_-41" parent="1">
          <mxGeometry relative="1" as="geometry">
            <mxPoint x="320" y="400" as="targetPoint" />
          </mxGeometry>
        </mxCell>
      </root>
    </mxGraphModel>
  </diagram>
  <diagram id="-tfTtdNwOUt5EQJUfNx-" name="PÃ¡gina-4">
    <mxGraphModel dx="1434" dy="839" grid="1" gridSize="10" guides="1" tooltips="1" connect="1" arrows="1" fold="1" page="1" pageScale="1" pageWidth="1169" pageHeight="827" math="0" shadow="0">
      <root>
        <mxCell id="0" />
        <mxCell id="1" parent="0" />
        <mxCell id="EzTjSTv7M3QyQd_3ihdT-1" value="" style="group" vertex="1" connectable="0" parent="1">
          <mxGeometry x="200" y="80" width="160" height="80" as="geometry" />
        </mxCell>
        <mxCell id="EzTjSTv7M3QyQd_3ihdT-2" value="" style="rounded=1;whiteSpace=wrap;html=1;fillColor=#BFBFBF;fontColor=#333333;strokeColor=#666666;container=0;" vertex="1" parent="EzTjSTv7M3QyQd_3ihdT-1">
          <mxGeometry width="160" height="80" as="geometry" />
        </mxCell>
        <mxCell id="EzTjSTv7M3QyQd_3ihdT-3" value="" style="endArrow=none;html=1;rounded=0;entryX=0.5;entryY=0;entryDx=0;entryDy=0;exitX=0.5;exitY=1;exitDx=0;exitDy=0;fillColor=#f5f5f5;strokeColor=#666666;" edge="1" parent="EzTjSTv7M3QyQd_3ihdT-1" source="EzTjSTv7M3QyQd_3ihdT-2" target="EzTjSTv7M3QyQd_3ihdT-2">
          <mxGeometry width="50" height="50" relative="1" as="geometry">
            <mxPoint x="10" y="440" as="sourcePoint" />
            <mxPoint x="60" y="390" as="targetPoint" />
          </mxGeometry>
        </mxCell>
        <mxCell id="EzTjSTv7M3QyQd_3ihdT-4" style="edgeStyle=orthogonalEdgeStyle;rounded=0;orthogonalLoop=1;jettySize=auto;html=1;" edge="1" parent="EzTjSTv7M3QyQd_3ihdT-1" source="EzTjSTv7M3QyQd_3ihdT-5">
          <mxGeometry relative="1" as="geometry">
            <mxPoint x="41" y="160" as="targetPoint" />
          </mxGeometry>
        </mxCell>
        <mxCell id="EzTjSTv7M3QyQd_3ihdT-5" value="" style="ellipse;whiteSpace=wrap;html=1;aspect=fixed;fillColor=#000000;container=0;" vertex="1" parent="EzTjSTv7M3QyQd_3ihdT-1">
          <mxGeometry x="36" y="35" width="10" height="10" as="geometry" />
        </mxCell>
        <mxCell id="EzTjSTv7M3QyQd_3ihdT-6" value="" style="ellipse;whiteSpace=wrap;html=1;aspect=fixed;fillColor=#000000;" vertex="1" parent="EzTjSTv7M3QyQd_3ihdT-1">
          <mxGeometry x="116" y="35" width="10" height="10" as="geometry" />
        </mxCell>
        <mxCell id="EzTjSTv7M3QyQd_3ihdT-7" value="" style="group" vertex="1" connectable="0" parent="1">
          <mxGeometry x="200" y="240" width="80" height="80" as="geometry" />
        </mxCell>
        <mxCell id="EzTjSTv7M3QyQd_3ihdT-8" value="" style="rounded=1;whiteSpace=wrap;html=1;" vertex="1" parent="EzTjSTv7M3QyQd_3ihdT-7">
          <mxGeometry width="80" height="80" as="geometry" />
        </mxCell>
        <mxCell id="EzTjSTv7M3QyQd_3ihdT-9" value="&lt;font style=&quot;font-size: 24px;&quot;&gt;a&lt;/font&gt;" style="text;html=1;strokeColor=none;fillColor=none;align=center;verticalAlign=middle;whiteSpace=wrap;rounded=0;" vertex="1" parent="EzTjSTv7M3QyQd_3ihdT-7">
          <mxGeometry x="10" y="25" width="60" height="30" as="geometry" />
        </mxCell>
        <mxCell id="EzTjSTv7M3QyQd_3ihdT-10" style="edgeStyle=orthogonalEdgeStyle;rounded=0;orthogonalLoop=1;jettySize=auto;html=1;entryX=0;entryY=0.5;entryDx=0;entryDy=0;" edge="1" parent="1" source="EzTjSTv7M3QyQd_3ihdT-11" target="EzTjSTv7M3QyQd_3ihdT-2">
          <mxGeometry relative="1" as="geometry" />
        </mxCell>
        <mxCell id="EzTjSTv7M3QyQd_3ihdT-11" value="x" style="text;html=1;strokeColor=none;fillColor=none;align=center;verticalAlign=middle;whiteSpace=wrap;rounded=0;fontSize=24;" vertex="1" parent="1">
          <mxGeometry x="60" y="105" width="60" height="30" as="geometry" />
        </mxCell>
        <mxCell id="EzTjSTv7M3QyQd_3ihdT-12" style="edgeStyle=orthogonalEdgeStyle;rounded=0;orthogonalLoop=1;jettySize=auto;html=1;exitX=0.5;exitY=0;exitDx=0;exitDy=0;entryX=0;entryY=0.5;entryDx=0;entryDy=0;" edge="1" parent="1" source="EzTjSTv7M3QyQd_3ihdT-6">
          <mxGeometry relative="1" as="geometry">
            <Array as="points">
              <mxPoint x="321" y="120" />
            </Array>
            <mxPoint x="440" y="120" as="targetPoint" />
          </mxGeometry>
        </mxCell>
        <mxCell id="EzTjSTv7M3QyQd_3ihdT-13" value="" style="group" vertex="1" connectable="0" parent="1">
          <mxGeometry x="680" y="240" width="80" height="80" as="geometry" />
        </mxCell>
        <mxCell id="EzTjSTv7M3QyQd_3ihdT-14" value="" style="rounded=1;whiteSpace=wrap;html=1;" vertex="1" parent="EzTjSTv7M3QyQd_3ihdT-13">
          <mxGeometry width="80" height="80" as="geometry" />
        </mxCell>
        <mxCell id="EzTjSTv7M3QyQd_3ihdT-15" value="&lt;font style=&quot;font-size: 24px;&quot;&gt;c&lt;/font&gt;" style="text;html=1;strokeColor=none;fillColor=none;align=center;verticalAlign=middle;whiteSpace=wrap;rounded=0;" vertex="1" parent="EzTjSTv7M3QyQd_3ihdT-13">
          <mxGeometry x="10" y="25" width="60" height="30" as="geometry" />
        </mxCell>
        <mxCell id="EzTjSTv7M3QyQd_3ihdT-22" value="" style="group" vertex="1" connectable="0" parent="1">
          <mxGeometry x="440" y="80" width="160" height="80" as="geometry" />
        </mxCell>
        <mxCell id="EzTjSTv7M3QyQd_3ihdT-23" value="" style="rounded=1;whiteSpace=wrap;html=1;fillColor=#BFBFBF;fontColor=#333333;strokeColor=#666666;container=0;" vertex="1" parent="EzTjSTv7M3QyQd_3ihdT-22">
          <mxGeometry width="160" height="80" as="geometry" />
        </mxCell>
        <mxCell id="EzTjSTv7M3QyQd_3ihdT-24" value="" style="endArrow=none;html=1;rounded=0;entryX=0.5;entryY=0;entryDx=0;entryDy=0;exitX=0.5;exitY=1;exitDx=0;exitDy=0;fillColor=#f5f5f5;strokeColor=#666666;" edge="1" parent="EzTjSTv7M3QyQd_3ihdT-22" source="EzTjSTv7M3QyQd_3ihdT-23" target="EzTjSTv7M3QyQd_3ihdT-23">
          <mxGeometry width="50" height="50" relative="1" as="geometry">
            <mxPoint x="10" y="440" as="sourcePoint" />
            <mxPoint x="60" y="390" as="targetPoint" />
          </mxGeometry>
        </mxCell>
        <mxCell id="EzTjSTv7M3QyQd_3ihdT-25" style="edgeStyle=orthogonalEdgeStyle;rounded=0;orthogonalLoop=1;jettySize=auto;html=1;" edge="1" parent="EzTjSTv7M3QyQd_3ihdT-22" source="EzTjSTv7M3QyQd_3ihdT-26">
          <mxGeometry relative="1" as="geometry">
            <mxPoint x="40" y="160" as="targetPoint" />
          </mxGeometry>
        </mxCell>
        <mxCell id="EzTjSTv7M3QyQd_3ihdT-26" value="" style="ellipse;whiteSpace=wrap;html=1;aspect=fixed;fillColor=#000000;container=0;" vertex="1" parent="EzTjSTv7M3QyQd_3ihdT-22">
          <mxGeometry x="35" y="35" width="10" height="10" as="geometry" />
        </mxCell>
        <mxCell id="EzTjSTv7M3QyQd_3ihdT-27" value="" style="ellipse;whiteSpace=wrap;html=1;aspect=fixed;fillColor=#000000;" vertex="1" parent="EzTjSTv7M3QyQd_3ihdT-22">
          <mxGeometry x="115" y="35" width="10" height="10" as="geometry" />
        </mxCell>
        <mxCell id="EzTjSTv7M3QyQd_3ihdT-28" style="edgeStyle=orthogonalEdgeStyle;rounded=0;orthogonalLoop=1;jettySize=auto;html=1;" edge="1" parent="1" source="EzTjSTv7M3QyQd_3ihdT-27">
          <mxGeometry relative="1" as="geometry">
            <mxPoint x="680" y="120" as="targetPoint" />
          </mxGeometry>
        </mxCell>
        <mxCell id="EzTjSTv7M3QyQd_3ihdT-29" value="" style="group" vertex="1" connectable="0" parent="1">
          <mxGeometry x="440" y="240" width="80" height="80" as="geometry" />
        </mxCell>
        <mxCell id="EzTjSTv7M3QyQd_3ihdT-30" value="" style="rounded=1;whiteSpace=wrap;html=1;" vertex="1" parent="EzTjSTv7M3QyQd_3ihdT-29">
          <mxGeometry width="80" height="80" as="geometry" />
        </mxCell>
        <mxCell id="EzTjSTv7M3QyQd_3ihdT-31" value="&lt;font style=&quot;font-size: 24px;&quot;&gt;b&lt;/font&gt;" style="text;html=1;strokeColor=none;fillColor=none;align=center;verticalAlign=middle;whiteSpace=wrap;rounded=0;" vertex="1" parent="EzTjSTv7M3QyQd_3ihdT-29">
          <mxGeometry x="10" y="25" width="60" height="30" as="geometry" />
        </mxCell>
        <mxCell id="EzTjSTv7M3QyQd_3ihdT-32" value="" style="group" vertex="1" connectable="0" parent="1">
          <mxGeometry x="680" y="80" width="160" height="80" as="geometry" />
        </mxCell>
        <mxCell id="EzTjSTv7M3QyQd_3ihdT-33" value="" style="rounded=1;whiteSpace=wrap;html=1;fillColor=#BFBFBF;fontColor=#333333;strokeColor=#666666;container=0;" vertex="1" parent="EzTjSTv7M3QyQd_3ihdT-32">
          <mxGeometry width="160" height="80" as="geometry" />
        </mxCell>
        <mxCell id="EzTjSTv7M3QyQd_3ihdT-34" value="" style="endArrow=none;html=1;rounded=0;entryX=0.5;entryY=0;entryDx=0;entryDy=0;exitX=0.5;exitY=1;exitDx=0;exitDy=0;fillColor=#f5f5f5;strokeColor=#666666;" edge="1" parent="EzTjSTv7M3QyQd_3ihdT-32" source="EzTjSTv7M3QyQd_3ihdT-33" target="EzTjSTv7M3QyQd_3ihdT-33">
          <mxGeometry width="50" height="50" relative="1" as="geometry">
            <mxPoint x="10" y="440" as="sourcePoint" />
            <mxPoint x="60" y="390" as="targetPoint" />
          </mxGeometry>
        </mxCell>
        <mxCell id="EzTjSTv7M3QyQd_3ihdT-35" style="edgeStyle=orthogonalEdgeStyle;rounded=0;orthogonalLoop=1;jettySize=auto;html=1;" edge="1" parent="EzTjSTv7M3QyQd_3ihdT-32" source="EzTjSTv7M3QyQd_3ihdT-36">
          <mxGeometry relative="1" as="geometry">
            <mxPoint x="40" y="160" as="targetPoint" />
          </mxGeometry>
        </mxCell>
        <mxCell id="EzTjSTv7M3QyQd_3ihdT-36" value="" style="ellipse;whiteSpace=wrap;html=1;aspect=fixed;fillColor=#000000;container=0;" vertex="1" parent="EzTjSTv7M3QyQd_3ihdT-32">
          <mxGeometry x="35" y="35" width="10" height="10" as="geometry" />
        </mxCell>
        <mxCell id="EzTjSTv7M3QyQd_3ihdT-37" value="" style="ellipse;whiteSpace=wrap;html=1;aspect=fixed;fillColor=#000000;" vertex="1" parent="EzTjSTv7M3QyQd_3ihdT-32">
          <mxGeometry x="115" y="35" width="10" height="10" as="geometry" />
        </mxCell>
        <mxCell id="EzTjSTv7M3QyQd_3ihdT-38" style="edgeStyle=orthogonalEdgeStyle;rounded=0;orthogonalLoop=1;jettySize=auto;html=1;entryX=0.25;entryY=0;entryDx=0;entryDy=0;" edge="1" parent="1" source="EzTjSTv7M3QyQd_3ihdT-37" target="EzTjSTv7M3QyQd_3ihdT-2">
          <mxGeometry relative="1" as="geometry">
            <Array as="points">
              <mxPoint x="800" y="40" />
              <mxPoint x="240" y="40" />
            </Array>
          </mxGeometry>
        </mxCell>
      </root>
    </mxGraphModel>
  </diagram>
</mxfile>
